<svg id="Camada_1" data-name="Camada 1" xmlns="http://www.w3.org/2000/svg" viewBox="0 0 1920 473.36"><defs><style>.cls-1{fill:#912b78;}.cls-2{fill:#340b77;}</style></defs><title>Conecta_logo</title><path class="cls-1" d="M393.13,126.94a29,29,0,0,1-.6,5.86,28.43,28.43,0,1,1,.6-5.86Z"/><path class="cls-1" d="M151.4,346.42A28.39,28.39,0,1,1,123,318c.56,0,1.12,0,1.66.06.27,0,.55,0,.82.06a7.53,7.53,0,0,1,.83.08c.4,0,.8.1,1.19.15s.78.14,1.18.23.94.2,1.4.32.91.24,1.35.38.88.3,1.32.45.78.29,1.18.46a27.71,27.71,0,0,1,3.4,1.71,10.3,10.3,0,0,1,.9.55c.3.18.59.38.87.58l0,0,1,.76a29.92,29.92,0,0,1,2.88,2.51c.27.27.53.54.77.82a27.51,27.51,0,0,1,3.47,4.57,29.88,29.88,0,0,1,2.34,4.87,26.45,26.45,0,0,1,1.14,4,27.18,27.18,0,0,1,.44,2.89,10.56,10.56,0,0,1,.09,1.12C151.39,345.19,151.4,345.8,151.4,346.42Z"/><path class="cls-2" d="M540.05,236.67a10.55,10.55,0,0,1-4.69,8.77L370.57,355.18a10.51,10.51,0,0,1-5.83,1.76H243.64a10.51,10.51,0,0,1-5.83-19.27l151.63-101-149-99.21H157.8l135.83,90.46a10.54,10.54,0,0,1,0,17.52l-124.58,83a49.71,49.71,0,0,0-11.69-17.51l111.45-74.23-151.63-101A10.52,10.52,0,0,1,123,116.42H243.64a10.51,10.51,0,0,1,5.83,1.76L414.26,227.92a10.53,10.53,0,0,1,0,17.52L278.43,335.9h83.12l149-99.23L399.08,162.45A49.34,49.34,0,0,0,410.78,145l124.58,83A10.56,10.56,0,0,1,540.05,236.67Z"/><path class="cls-1" d="M690.73,127.69a79.79,79.79,0,0,1,39.77-10.26,82.19,82.19,0,0,1,35.92,7.8,74.09,74.09,0,0,1,22.82,16.85,9,9,0,0,0,11.94,1.09h0a9,9,0,0,0,1.34-13.2,88.45,88.45,0,0,0-27-20.33q-20.25-10-45.38-10-41.42,0-69,26.94t-27.59,66.21q0,33.48,22.69,59.92Q683.37,284,730.5,284q24.62,0,44.69-9.31A91,91,0,0,0,802,256a9,9,0,0,0-1.05-13.47h0a9.06,9.06,0,0,0-11.87.88q-23.79,23.69-57.58,23.69-34.19,0-56.66-20t-22.47-52.74q0-21.74,10.08-39.08A74.37,74.37,0,0,1,690.73,127.69Z"/><path class="cls-1" d="M929.84,100.15a91.72,91.72,0,0,0-46.76,12.51A90.37,90.37,0,0,0,849,147.28a95.78,95.78,0,0,0-12.44,47.84q0,34.42,27.43,61.67T931.28,284q39.29,0,66.59-25.25t27.3-64.52q0-39.77-27.38-66.94T929.84,100.15Zm66.93,128.74a72.47,72.47,0,0,1-27.67,27.59,76.3,76.3,0,0,1-38.54,10.15q-31.15,0-53.22-19.81t-22.05-51.7a78.2,78.2,0,0,1,9.92-39.1,76.09,76.09,0,0,1,65.35-38.23,75.75,75.75,0,0,1,38.31,10.33,73.88,73.88,0,0,1,27.9,27.6,76.17,76.17,0,0,1,9.92,38.55Q1006.69,211.41,996.77,228.89Z"/><path class="cls-1" d="M1183.93,240.43,1064.79,103.28h-3.85v169.9a9.29,9.29,0,0,0,9.29,9.29h0a9.29,9.29,0,0,0,9.3-9.29V147l117.92,135.45h4.12V112.1a8.82,8.82,0,0,0-8.82-8.82h0a8.82,8.82,0,0,0-8.82,8.82Z"/><path class="cls-1" d="M1245.06,282.47h93.09a8.88,8.88,0,0,0,8.88-8.88h0a8.88,8.88,0,0,0-8.88-8.88H1263V194.38h43a8.7,8.7,0,0,0,8.7-8.69h0a8.71,8.71,0,0,0-8.7-8.7h-43V120.92h76a8.82,8.82,0,0,0,8.82-8.82h0a8.82,8.82,0,0,0-8.82-8.82h-93.89Z"/><path class="cls-1" d="M1666.36,108.36a8.69,8.69,0,0,0-8.69-8.69H1471.48a116.14,116.14,0,0,0-15.23,1,92.19,92.19,0,0,0-53.82,26q-27.62,27-27.61,66.21,0,33.48,22.72,59.92,27.18,31.29,74.3,31.3,24.65,0,44.71-9.31A91.08,91.08,0,0,0,1543.3,256a9,9,0,0,0-1-13.48h0a9.06,9.06,0,0,0-11.87.89q-23.78,23.69-57.58,23.69-34.2,0-56.66-20t-22.48-52.74q0-21.74,10.09-39.08a74.19,74.19,0,0,1,28.34-27.61,80.12,80.12,0,0,1,39.74-10.76H1568v.12h40V272.87a9.12,9.12,0,0,0,9.12,9.12h0a9.11,9.11,0,0,0,9.11-9.12V117.05h31.43a8.69,8.69,0,0,0,8.69-8.69Z"/><path class="cls-1" d="M1746.82,102.8h-4.35l-78.84,166.81a8.67,8.67,0,0,0,7.84,12.38h.87a8.69,8.69,0,0,0,7.84-5l25.57-54.13h77.33l25.79,54.16a8.69,8.69,0,0,0,7.83,4.94h0a8.68,8.68,0,0,0,7.86-12.34Zm-33.1,102.94,30.93-65,30.45,65Z"/><path class="cls-2" d="M650.79,367.5a15.4,15.4,0,0,1-8-2,13.5,13.5,0,0,1-5.24-5.78,22.73,22.73,0,0,1,0-18,13.81,13.81,0,0,1,5.28-5.84,16.53,16.53,0,0,1,15.93,0,13.68,13.68,0,0,1,5.23,5.83,23.07,23.07,0,0,1,0,18,13.43,13.43,0,0,1-5.21,5.8A15.22,15.22,0,0,1,650.79,367.5Zm0-5.44a7.48,7.48,0,0,0,4.16-1.15,7.25,7.25,0,0,0,2.71-3.63,18.52,18.52,0,0,0,1-6.48,19.12,19.12,0,0,0-1-6.64,7.65,7.65,0,0,0-2.72-3.74,7.83,7.83,0,0,0-8.3,0,7.65,7.65,0,0,0-2.74,3.75,18.85,18.85,0,0,0-1,6.63,18,18,0,0,0,1,6.49,7.31,7.31,0,0,0,2.74,3.62A7.53,7.53,0,0,0,650.79,362.06Z"/><path class="cls-2" d="M687.92,367.46a11.15,11.15,0,0,1-4.1-.62,4.94,4.94,0,0,1-2.25-1.62,5.33,5.33,0,0,1-.93-2.25,14.88,14.88,0,0,1-.2-2.5V333.33h6.48v26.32a3.64,3.64,0,0,0,.56,2.1,2.8,2.8,0,0,0,2.1,1l1.11.06v4.09c-.45.15-.92.28-1.38.4A6.07,6.07,0,0,1,687.92,367.46Z"/><path class="cls-2" d="M703.46,367.5a10.65,10.65,0,0,1-3.21-.5,9.4,9.4,0,0,1-2.87-1.47,7.51,7.51,0,0,1-2.07-2.41,6.76,6.76,0,0,1-.79-3.29V343.59h6.63V359a3.59,3.59,0,0,0,1.06,2.68,4.36,4.36,0,0,0,3.14,1,4.51,4.51,0,0,0,3.09-1,3.54,3.54,0,0,0,1.15-2.82V343.59h6.55v23.46h-5l-.77-4.65a5.88,5.88,0,0,1-1.53,3.16,6.07,6.07,0,0,1-2.56,1.52A10.06,10.06,0,0,1,703.46,367.5Z"/><path class="cls-2" d="M732.23,374.81q-6.27,0-9.52-1.59T719.46,369a3.22,3.22,0,0,1,.63-2,5.1,5.1,0,0,1,1.49-1.3,10.84,10.84,0,0,1,1.56-.75,7.86,7.86,0,0,0,.88-.35L723,364a4.75,4.75,0,0,1-1.26-1.09,2.71,2.71,0,0,1-.56-1.78,3.09,3.09,0,0,1,1.19-2.34,7,7,0,0,1,3.61-1.45,8.35,8.35,0,0,1-3.51-3,7,7,0,0,1-1.2-3.81,5.79,5.79,0,0,1,1.45-4,9,9,0,0,1,4-2.52,17.25,17.25,0,0,1,5.68-.86,12.89,12.89,0,0,1,4,.51,13.57,13.57,0,0,1,2.86,1.32l1.38-.53c.58-.22,1.2-.46,1.86-.73s1.32-.52,2-.79l1.7-.71,0,5.12-4.06.66a6.75,6.75,0,0,1,.39,1.32,6.28,6.28,0,0,1,.13,1.15,6.66,6.66,0,0,1-1.19,3.82,8.34,8.34,0,0,1-3.56,2.85,14,14,0,0,1-5.86,1.09c-.29,0-.68,0-1.16,0s-.87,0-1.16-.07a5,5,0,0,0-1.84.34c-.33.18-.49.4-.49.64s.34.6,1,.71,1.71.22,3.08.31l2,.11,2.86.18c2.87.2,5,.91,6.43,2.12a5.83,5.83,0,0,1,2.12,4.6,6.39,6.39,0,0,1-3.12,5.43Q738.51,374.8,732.23,374.81Zm1.07-3.7a8.39,8.39,0,0,0,3.94-.68,2.15,2.15,0,0,0,1.18-1.95,2.08,2.08,0,0,0-.9-1.74,5,5,0,0,0-2.66-.78l-5.38-.34a3.83,3.83,0,0,0-1.85.29,3,3,0,0,0-1.24,1,2.31,2.31,0,0,0-.45,1.36q0,1.47,1.8,2.16A16.82,16.82,0,0,0,733.3,371.11Zm-1.25-16.5a4.37,4.37,0,0,0,3-1,3.59,3.59,0,0,0,1.14-2.8,3.94,3.94,0,0,0-1.14-2.95,4.69,4.69,0,0,0-6.06,0,3.89,3.89,0,0,0-1.17,2.95,3.6,3.6,0,0,0,1.12,2.79A4.34,4.34,0,0,0,732.05,354.61Z"/><path class="cls-2" d="M756,367.5a9.42,9.42,0,0,1-4-.84,6.66,6.66,0,0,1-2.83-2.44,6.91,6.91,0,0,1-1.05-3.89,6.71,6.71,0,0,1,2.87-5.86c1.92-1.34,5-2,9.11-2.08l2.93,0v-1.41a3.24,3.24,0,0,0-.94-2.48,4.1,4.1,0,0,0-2.92-.86,6.29,6.29,0,0,0-2.75.69,3.5,3.5,0,0,0-1.79,2.29h-5.51a7,7,0,0,1,1.48-4.19,7.9,7.9,0,0,1,3.64-2.45,15.7,15.7,0,0,1,5.23-.8,15.41,15.41,0,0,1,5.78.89,6.28,6.28,0,0,1,3.16,2.57,7.69,7.69,0,0,1,1,3.95v16.5h-5.53l-.55-4a7.3,7.3,0,0,1-3,3.51A8.69,8.69,0,0,1,756,367.5Zm2.22-4.35a4.78,4.78,0,0,0,1.76-.33,5.34,5.34,0,0,0,1.52-.89,4.59,4.59,0,0,0,1.08-1.26,2.87,2.87,0,0,0,.41-1.45v-3.45l-2.38,0a13,13,0,0,0-3.09.4,5.12,5.12,0,0,0-2.3,1.22,3,3,0,0,0-.87,2.26,3.11,3.11,0,0,0,1.13,2.56A4.24,4.24,0,0,0,758.2,363.15Z"/><path class="cls-2" d="M775.2,367.05V343.59h6.37v5.56a10.11,10.11,0,0,1,1.6-3.14,7.27,7.27,0,0,1,2.51-2.11,7.1,7.1,0,0,1,3.33-.76,5.74,5.74,0,0,1,.6,0,1.43,1.43,0,0,1,.42.1v6.31a1.61,1.61,0,0,0-.48-.12l-.52,0a12.21,12.21,0,0,0-3.33.11,5.38,5.38,0,0,0-2.25.93,3.79,3.79,0,0,0-1.24,1.61,5.63,5.63,0,0,0-.39,2.14v12.84Z"/><path class="cls-2" d="M811.06,367.5a8.93,8.93,0,0,1-7.35-3.25c-1.75-2.17-2.63-5.2-2.63-9.07a17.3,17.3,0,0,1,1.07-6.37,9.07,9.07,0,0,1,3.15-4.19,8.57,8.57,0,0,1,5.11-1.48,9.5,9.5,0,0,1,2.37.28,8.67,8.67,0,0,1,2,.78,7.08,7.08,0,0,1,1.59,1.16,6,6,0,0,1,1.11,1.41V333.33h6.65v33.72h-4.81l-.75-4.81a8.79,8.79,0,0,1-.88,1.9,7,7,0,0,1-1.45,1.69,6.89,6.89,0,0,1-2.17,1.22A9.12,9.12,0,0,1,811.06,367.5Zm1.46-4.76a4.29,4.29,0,0,0,3.73-1.75q1.23-1.74,1.23-5.9a12.81,12.81,0,0,0-.56-4,4.73,4.73,0,0,0-1.63-2.37,4.86,4.86,0,0,0-6.31.86c-1,1.1-1.43,2.93-1.43,5.5s.44,4.55,1.34,5.79A4.24,4.24,0,0,0,812.52,362.74Z"/><path class="cls-2" d="M835.25,356.84a7.4,7.4,0,0,0,.56,3.12,4.61,4.61,0,0,0,1.72,2,4.91,4.91,0,0,0,2.71.71,6,6,0,0,0,3-.72,3.87,3.87,0,0,0,1.78-2.38h6a8,8,0,0,1-2,4.26,10.45,10.45,0,0,1-3.86,2.7,13.05,13.05,0,0,1-10.84-.53,10.36,10.36,0,0,1-4.11-4.14,12.82,12.82,0,0,1-1.48-6.31,14.66,14.66,0,0,1,1.34-6.34,10.63,10.63,0,0,1,3.89-4.47,11.06,11.06,0,0,1,6.14-1.64,11.3,11.3,0,0,1,6,1.5,9.44,9.44,0,0,1,3.67,4.2,14.62,14.62,0,0,1,1.24,6.21v1.79Zm0-3.95h9.58a6.31,6.31,0,0,0-.52-2.57,4.28,4.28,0,0,0-1.58-1.86,4.66,4.66,0,0,0-2.64-.7,4.52,4.52,0,0,0-2.62.74,4.8,4.8,0,0,0-1.65,1.92A5.59,5.59,0,0,0,835.22,352.89Z"/><path class="cls-2" d="M864.76,367.05V343.59h6.49v3.31a9.42,9.42,0,0,1,2.87-2.65,8.54,8.54,0,0,1,4.55-1.11,7.4,7.4,0,0,1,2.45.43,8.24,8.24,0,0,1,2.35,1.26,6.49,6.49,0,0,1,1.78,2.07,9.34,9.34,0,0,1,3-2.69,8,8,0,0,1,4.12-1.07,8.6,8.6,0,0,1,2.66.43,6.79,6.79,0,0,1,4.31,4,10.06,10.06,0,0,1,.7,4v15.48h-6.63V352.39a4.09,4.09,0,0,0-.55-2.26,3.24,3.24,0,0,0-1.41-1.22,4.44,4.44,0,0,0-1.8-.38,4.89,4.89,0,0,0-1.8.36,3.7,3.7,0,0,0-1.54,1.12,3.09,3.09,0,0,0-.63,2v15h-6.61V351.8a2.85,2.85,0,0,0-.56-1.79,3.66,3.66,0,0,0-1.42-1.1,4.3,4.3,0,0,0-1.74-.38,4.7,4.7,0,0,0-1.81.38,3.61,3.61,0,0,0-1.52,1.16,3.06,3.06,0,0,0-.61,2v15Z"/><path class="cls-2" d="M913.74,367.5a10.65,10.65,0,0,1-3.21-.5,9.4,9.4,0,0,1-2.87-1.47,7.51,7.51,0,0,1-2.07-2.41,6.65,6.65,0,0,1-.79-3.29V343.59h6.63V359a3.59,3.59,0,0,0,1.06,2.68,4.35,4.35,0,0,0,3.13,1,4.52,4.52,0,0,0,3.1-1,3.54,3.54,0,0,0,1.15-2.82V343.59h6.55v23.46h-5l-.77-4.65a5.88,5.88,0,0,1-1.53,3.16,6.07,6.07,0,0,1-2.56,1.52A10.11,10.11,0,0,1,913.74,367.5Z"/><path class="cls-2" d="M939.42,367.46a11.15,11.15,0,0,1-4.1-.62,4.94,4.94,0,0,1-2.25-1.62,5.33,5.33,0,0,1-.93-2.25,14.88,14.88,0,0,1-.2-2.5V333.33h6.48v26.32a3.64,3.64,0,0,0,.56,2.1,2.8,2.8,0,0,0,2.1,1l1.11.06v4.09c-.45.15-.92.28-1.38.4A6.07,6.07,0,0,1,939.42,367.46Z"/><path class="cls-2" d="M946.52,367.05V333.33h6.58V347a10,10,0,0,1,1.43-1.62,7.1,7.1,0,0,1,2.16-1.35,8,8,0,0,1,3.15-.55,9.4,9.4,0,0,1,4.1.88,7.23,7.23,0,0,1,3,2.53,7.07,7.07,0,0,1,1.12,4v16.16h-6.65V351.87a2.86,2.86,0,0,0-1.14-2.44,4.53,4.53,0,0,0-2.78-.85,5.67,5.67,0,0,0-2.07.39,3.75,3.75,0,0,0-1.62,1.16,3,3,0,0,0-.62,1.94v15Z"/><path class="cls-2" d="M978.85,356.84a7.4,7.4,0,0,0,.57,3.12,4.53,4.53,0,0,0,1.71,2,4.91,4.91,0,0,0,2.71.71,6,6,0,0,0,3-.72,3.94,3.94,0,0,0,1.78-2.38h6a8,8,0,0,1-2,4.26,10.57,10.57,0,0,1-3.87,2.7,12.33,12.33,0,0,1-4.72.93,12.46,12.46,0,0,1-6.11-1.46,10.33,10.33,0,0,1-4.12-4.14,12.93,12.93,0,0,1-1.48-6.31,14.66,14.66,0,0,1,1.34-6.34,10.7,10.7,0,0,1,3.89-4.47,11.08,11.08,0,0,1,6.14-1.64,11.27,11.27,0,0,1,6,1.5,9.52,9.52,0,0,1,3.68,4.2,14.77,14.77,0,0,1,1.24,6.21v1.79Zm0-3.95h9.57a6.15,6.15,0,0,0-.52-2.57,4.21,4.21,0,0,0-1.58-1.86,4.63,4.63,0,0,0-2.64-.7,4.54,4.54,0,0,0-2.62.74,4.7,4.7,0,0,0-1.64,1.92A5.59,5.59,0,0,0,978.83,352.89Z"/><path class="cls-2" d="M999.2,367.05V343.59h6.38v5.56a9.9,9.9,0,0,1,1.6-3.14,7.08,7.08,0,0,1,5.84-2.87,5.74,5.74,0,0,1,.6,0,1.43,1.43,0,0,1,.42.1v6.31a1.68,1.68,0,0,0-.49-.12l-.51,0a12.21,12.21,0,0,0-3.33.11,5.27,5.27,0,0,0-2.25.93,3.82,3.82,0,0,0-1.25,1.61,5.63,5.63,0,0,0-.38,2.14v12.84Z"/><path class="cls-2" d="M1031.8,356.84a7.4,7.4,0,0,0,.57,3.12,4.53,4.53,0,0,0,1.71,2,4.91,4.91,0,0,0,2.71.71,6,6,0,0,0,3-.72,3.94,3.94,0,0,0,1.78-2.38h6a8,8,0,0,1-2,4.26,10.57,10.57,0,0,1-3.87,2.7,12.33,12.33,0,0,1-4.72.93,12.46,12.46,0,0,1-6.11-1.46,10.39,10.39,0,0,1-4.12-4.14,12.93,12.93,0,0,1-1.47-6.31,14.66,14.66,0,0,1,1.33-6.34,10.7,10.7,0,0,1,3.89-4.47,11.08,11.08,0,0,1,6.14-1.64,11.27,11.27,0,0,1,6,1.5,9.52,9.52,0,0,1,3.68,4.2,14.77,14.77,0,0,1,1.24,6.21v1.79Zm0-3.95h9.57a6.15,6.15,0,0,0-.52-2.57,4.21,4.21,0,0,0-1.58-1.86,4.63,4.63,0,0,0-2.64-.7,4.54,4.54,0,0,0-2.62.74,4.7,4.7,0,0,0-1.64,1.92A5.59,5.59,0,0,0,1031.78,352.89Zm7.12-18.65h6.83l-6.74,6.6h-4.76Z"/><path class="cls-2" d="M1070.48,367.5a11.81,11.81,0,0,1-6-1.47,10.09,10.09,0,0,1-4-4.18,13.76,13.76,0,0,1-1.39-6.4,14.17,14.17,0,0,1,1.39-6.46,10.37,10.37,0,0,1,4-4.31,12.61,12.61,0,0,1,12,0,10.13,10.13,0,0,1,3.92,4.27,14.41,14.41,0,0,1,1.39,6.52,14,14,0,0,1-1.35,6.25,10.25,10.25,0,0,1-3.88,4.26A11.54,11.54,0,0,1,1070.48,367.5Zm0-4.92a3.91,3.91,0,0,0,2.82-1,5.91,5.91,0,0,0,1.55-2.69,12.77,12.77,0,0,0,.49-3.64,13.8,13.8,0,0,0-.44-3.52,5.7,5.7,0,0,0-1.51-2.68,4.62,4.62,0,0,0-5.73,0,5.6,5.6,0,0,0-1.58,2.61,12.56,12.56,0,0,0-.5,3.64,13.17,13.17,0,0,0,.46,3.52,6,6,0,0,0,1.52,2.76A3.94,3.94,0,0,0,1070.5,362.58Z"/><path class="cls-2" d="M1086.23,367.05V343.59h6.51v3.31a8.52,8.52,0,0,1,1.41-1.67,7,7,0,0,1,2.22-1.32,8.66,8.66,0,0,1,3.17-.53,9.89,9.89,0,0,1,4,.84,6.92,6.92,0,0,1,3,2.65,8.59,8.59,0,0,1,1.15,4.7v15.48h-6.62V352.39a3.5,3.5,0,0,0-1.15-2.86,4.18,4.18,0,0,0-2.75-.95,5.75,5.75,0,0,0-2.1.39,3.82,3.82,0,0,0-1.64,1.15,2.88,2.88,0,0,0-.64,1.91v15Z"/><path class="cls-2" d="M1121.84,367.5a8.93,8.93,0,0,1-7.35-3.25c-1.75-2.17-2.63-5.2-2.63-9.07a17.3,17.3,0,0,1,1.07-6.37,9.07,9.07,0,0,1,3.15-4.19,8.56,8.56,0,0,1,5.1-1.48,9.39,9.39,0,0,1,2.37.28,8.58,8.58,0,0,1,2,.78,7.08,7.08,0,0,1,1.59,1.16,6.32,6.32,0,0,1,1.11,1.41V333.33h6.65v33.72h-4.81l-.75-4.81a9.29,9.29,0,0,1-.88,1.9,7,7,0,0,1-1.46,1.69,6.84,6.84,0,0,1-2.16,1.22A9.12,9.12,0,0,1,1121.84,367.5Zm1.45-4.76A4.3,4.3,0,0,0,1127,361q1.23-1.74,1.23-5.9a12.81,12.81,0,0,0-.56-4,4.73,4.73,0,0,0-1.63-2.37,4.88,4.88,0,0,0-6.32.86q-1.43,1.65-1.42,5.5t1.33,5.79A4.26,4.26,0,0,0,1123.29,362.74Z"/><path class="cls-2" d="M1146,356.84a7.4,7.4,0,0,0,.56,3.12,4.61,4.61,0,0,0,1.72,2,4.89,4.89,0,0,0,2.71.71,6,6,0,0,0,3-.72,3.91,3.91,0,0,0,1.78-2.38h6a8,8,0,0,1-2,4.26,10.41,10.41,0,0,1-3.87,2.7,12.28,12.28,0,0,1-4.71.93,12.48,12.48,0,0,1-6.12-1.46,10.45,10.45,0,0,1-4.12-4.14,12.93,12.93,0,0,1-1.47-6.31,14.66,14.66,0,0,1,1.34-6.34,10.63,10.63,0,0,1,3.89-4.47,11.05,11.05,0,0,1,6.13-1.64,11.33,11.33,0,0,1,6,1.5,9.5,9.5,0,0,1,3.67,4.2,14.62,14.62,0,0,1,1.24,6.21v1.79Zm0-3.95h9.58a6.15,6.15,0,0,0-.53-2.57,4.19,4.19,0,0,0-1.57-1.86,4.69,4.69,0,0,0-2.65-.7,4.56,4.56,0,0,0-2.62.74,4.85,4.85,0,0,0-1.64,1.92A5.59,5.59,0,0,0,1146,352.89Z"/><path class="cls-2" d="M1180.08,356.84a7.25,7.25,0,0,0,.57,3.12,4.53,4.53,0,0,0,1.71,2,4.91,4.91,0,0,0,2.71.71,6,6,0,0,0,3-.72,3.87,3.87,0,0,0,1.78-2.38h6a8.1,8.1,0,0,1-2,4.26,10.57,10.57,0,0,1-3.87,2.7,12.37,12.37,0,0,1-4.72.93,12.5,12.5,0,0,1-6.12-1.46,10.36,10.36,0,0,1-4.11-4.14,12.82,12.82,0,0,1-1.48-6.31,14.66,14.66,0,0,1,1.34-6.34,10.63,10.63,0,0,1,3.89-4.47,11.06,11.06,0,0,1,6.14-1.64,11.27,11.27,0,0,1,6,1.5,9.52,9.52,0,0,1,3.68,4.2,14.77,14.77,0,0,1,1.23,6.21v1.79Zm0-3.95h9.57a6.15,6.15,0,0,0-.52-2.57,4.28,4.28,0,0,0-1.58-1.86,4.63,4.63,0,0,0-2.64-.7,4.54,4.54,0,0,0-2.62.74,4.8,4.8,0,0,0-1.65,1.92A5.72,5.72,0,0,0,1180.06,352.89Z"/><path class="cls-2" d="M1207.91,367.46a11.15,11.15,0,0,1-4.1-.62,5,5,0,0,1-2.25-1.62,5.33,5.33,0,0,1-.93-2.25,16,16,0,0,1-.2-2.5V333.33h6.49v26.32a3.64,3.64,0,0,0,.55,2.1,2.8,2.8,0,0,0,2.1,1l1.11.06v4.09c-.45.15-.91.28-1.38.4A6.07,6.07,0,0,1,1207.91,367.46Z"/><path class="cls-2" d="M1221.75,367.5a9.37,9.37,0,0,1-4-.84,6.69,6.69,0,0,1-2.84-2.44,6.91,6.91,0,0,1-1-3.89,6.68,6.68,0,0,1,2.87-5.86c1.91-1.34,5-2,9.1-2.08l2.93,0v-1.41a3.2,3.2,0,0,0-.94-2.48,4.1,4.1,0,0,0-2.92-.86,6.32,6.32,0,0,0-2.75.69,3.49,3.49,0,0,0-1.78,2.29h-5.52a7.13,7.13,0,0,1,1.48-4.19,8,8,0,0,1,3.64-2.45,15.74,15.74,0,0,1,5.23-.8,15.41,15.41,0,0,1,5.78.89,6.2,6.2,0,0,1,3.16,2.57,7.69,7.69,0,0,1,1,3.95v16.5h-5.53l-.55-4a7.34,7.34,0,0,1-3,3.51A8.71,8.71,0,0,1,1221.75,367.5Zm2.23-4.35a4.86,4.86,0,0,0,1.76-.33,5.62,5.62,0,0,0,1.52-.89,4.72,4.72,0,0,0,1.07-1.26,2.78,2.78,0,0,0,.41-1.45v-3.45l-2.38,0a13.12,13.12,0,0,0-3.09.4,5.12,5.12,0,0,0-2.3,1.22,3,3,0,0,0-.87,2.26,3.14,3.14,0,0,0,1.13,2.56A4.25,4.25,0,0,0,1224,363.15Z"/><path class="cls-2" d="M1271.39,374.35h-6.62V363.53a7.94,7.94,0,0,1-1.16,1.55,7.78,7.78,0,0,1-1.53,1.26,7.34,7.34,0,0,1-4,1.16,9.72,9.72,0,0,1-4.86-1.25,8.71,8.71,0,0,1-3.51-4,16.43,16.43,0,0,1-1.32-7.14,17.35,17.35,0,0,1,1.11-6.64,8.58,8.58,0,0,1,3.15-4,8.47,8.47,0,0,1,4.77-1.35,9,9,0,0,1,2.29.28,8.77,8.77,0,0,1,2,.8,9.46,9.46,0,0,1,1.69,1.22,7.13,7.13,0,0,1,1.28,1.53l0-3.38h6.62Zm-11.68-11.7a4,4,0,0,0,2.83-1,6.23,6.23,0,0,0,1.69-2.74,11.74,11.74,0,0,0,.56-3.66,9.91,9.91,0,0,0-1.25-5.18,4.17,4.17,0,0,0-3.83-2.08,4.48,4.48,0,0,0-3.61,1.83,8.54,8.54,0,0,0-1.47,5.43,9.27,9.27,0,0,0,1.39,5.56A4.37,4.37,0,0,0,1259.71,362.65Z"/><path class="cls-2" d="M1285.71,367.5a10.65,10.65,0,0,1-3.21-.5,9.29,9.29,0,0,1-2.87-1.47,7.41,7.41,0,0,1-2.08-2.41,6.75,6.75,0,0,1-.78-3.29V343.59h6.62V359a3.6,3.6,0,0,0,1.07,2.68,4.31,4.31,0,0,0,3.13,1,4.55,4.55,0,0,0,3.1-1,3.56,3.56,0,0,0,1.14-2.82V343.59h6.56v23.46h-5l-.78-4.65a5.88,5.88,0,0,1-1.53,3.16,6,6,0,0,1-2.56,1.52A10,10,0,0,1,1285.71,367.5Z"/><path class="cls-2" d="M1310.64,334.27v6h-6.47v-6Zm-.07,9.32v23.46h-6.33V343.59Z"/><path class="cls-2" d="M1325.86,367.5a14.18,14.18,0,0,1-4.72-.8,9.23,9.23,0,0,1-3.83-2.55,8.42,8.42,0,0,1-2-4.5h5.74a3.9,3.9,0,0,0,1.08,2,4.62,4.62,0,0,0,1.78,1,6.58,6.58,0,0,0,1.9.3,6.78,6.78,0,0,0,3.08-.6,2,2,0,0,0,1.17-1.85,1.86,1.86,0,0,0-.7-1.52,5.28,5.28,0,0,0-2.28-.86l-4.12-.86a11.22,11.22,0,0,1-5-2.24,5.64,5.64,0,0,1-1.92-4.48,6.61,6.61,0,0,1,1.12-3.78,7.58,7.58,0,0,1,3.32-2.66,13.34,13.34,0,0,1,5.4-1,11.45,11.45,0,0,1,6.93,1.9,6.4,6.4,0,0,1,2.65,5.38h-5.54a3.11,3.11,0,0,0-1.35-2.1,4.85,4.85,0,0,0-2.76-.74,5.93,5.93,0,0,0-2.83.61,2,2,0,0,0-1.11,1.86,1.65,1.65,0,0,0,.9,1.47,9.93,9.93,0,0,0,2.82.92l3.81.86a10.18,10.18,0,0,1,3.21,1.3,7.46,7.46,0,0,1,1.92,1.81,6.39,6.39,0,0,1,.94,2,7.22,7.22,0,0,1,.26,1.78,6.39,6.39,0,0,1-1.25,4,7.76,7.76,0,0,1-3.47,2.51A14.29,14.29,0,0,1,1325.86,367.5Z"/><path class="cls-2" d="M1345.8,356.84a7.4,7.4,0,0,0,.57,3.12,4.53,4.53,0,0,0,1.71,2,4.91,4.91,0,0,0,2.71.71,6,6,0,0,0,3-.72,3.92,3.92,0,0,0,1.79-2.38h6a8.1,8.1,0,0,1-2,4.26,10.57,10.57,0,0,1-3.87,2.7,12.33,12.33,0,0,1-4.72.93,12.46,12.46,0,0,1-6.11-1.46,10.33,10.33,0,0,1-4.12-4.14,12.93,12.93,0,0,1-1.48-6.31,14.66,14.66,0,0,1,1.34-6.34,10.63,10.63,0,0,1,3.89-4.47,11.06,11.06,0,0,1,6.14-1.64,11.27,11.27,0,0,1,6,1.5,9.52,9.52,0,0,1,3.68,4.2,14.77,14.77,0,0,1,1.23,6.21v1.79Zm0-3.95h9.57a6.15,6.15,0,0,0-.52-2.57,4.21,4.21,0,0,0-1.58-1.86,4.63,4.63,0,0,0-2.64-.7,4.54,4.54,0,0,0-2.62.74,4.8,4.8,0,0,0-1.65,1.92A5.72,5.72,0,0,0,1345.78,352.89Z"/><path class="cls-2" d="M1366.15,367.05V343.59h6.38v5.56a10.09,10.09,0,0,1,1.59-3.14,7.36,7.36,0,0,1,2.51-2.11,7.14,7.14,0,0,1,3.34-.76,5.74,5.74,0,0,1,.6,0,1.43,1.43,0,0,1,.42.1v6.31a1.68,1.68,0,0,0-.49-.12l-.51,0a12.3,12.3,0,0,0-3.34.11,5.28,5.28,0,0,0-2.24.93,3.82,3.82,0,0,0-1.25,1.61,5.63,5.63,0,0,0-.39,2.14v12.84Z"/><path class="cls-2" d="M1381.49,373.4l2.63-6.17-2.32-.21V360.6h6.7v5.65l-4.56,7.15Z"/><path class="cls-2" d="M1410.66,334.27v6h-6.47v-6Zm-.07,9.32v23.46h-6.33V343.59Z"/><path class="cls-2" d="M1416.74,367.05V343.59h6.51v3.31a8.58,8.58,0,0,1,1.42-1.67,6.9,6.9,0,0,1,2.21-1.32,8.68,8.68,0,0,1,3.18-.53,9.88,9.88,0,0,1,4,.84,6.92,6.92,0,0,1,3,2.65,8.59,8.59,0,0,1,1.16,4.7v15.48h-6.63V352.39a3.52,3.52,0,0,0-1.14-2.86,4.21,4.21,0,0,0-2.76-.95,5.83,5.83,0,0,0-2.1.39,3.82,3.82,0,0,0-1.64,1.15,2.94,2.94,0,0,0-.64,1.91v15Z"/><path class="cls-2" d="M1453.7,343.14a10.27,10.27,0,0,1,5.09,1.2,9.07,9.07,0,0,1,3.38,3.24,10.1,10.1,0,0,1,1.42,4.56h-5.52a5.94,5.94,0,0,0-.65-1.85,4.36,4.36,0,0,0-1.41-1.52,4,4,0,0,0-2.27-.6A4.62,4.62,0,0,0,1450,350a8.5,8.5,0,0,0-1.44,5.41,9.31,9.31,0,0,0,1.4,5.44,4.52,4.52,0,0,0,3.93,2,3.66,3.66,0,0,0,2.23-.65,4.89,4.89,0,0,0,1.4-1.58,5.62,5.62,0,0,0,.63-1.71h5.38a9.23,9.23,0,0,1-1.41,4.39,8.93,8.93,0,0,1-3.39,3.11,10.54,10.54,0,0,1-5,1.14,11.57,11.57,0,0,1-5.83-1.45,10.29,10.29,0,0,1-4-4.16,13.42,13.42,0,0,1-1.46-6.48,13.93,13.93,0,0,1,1.4-6.4,10.61,10.61,0,0,1,4-4.32A11.2,11.2,0,0,1,1453.7,343.14Z"/><path class="cls-2" d="M1475.63,367.46a11.15,11.15,0,0,1-4.1-.62,4.94,4.94,0,0,1-2.25-1.62,5.33,5.33,0,0,1-.93-2.25,14.88,14.88,0,0,1-.2-2.5V333.33h6.48v26.32a3.64,3.64,0,0,0,.56,2.1,2.8,2.8,0,0,0,2.1,1l1.11.06v4.09c-.45.15-.91.28-1.38.4A6.07,6.07,0,0,1,1475.63,367.46Z"/><path class="cls-2" d="M1491.17,367.5a10.65,10.65,0,0,1-3.21-.5,9.52,9.52,0,0,1-2.87-1.47,7.51,7.51,0,0,1-2.07-2.41,6.76,6.76,0,0,1-.79-3.29V343.59h6.63V359a3.59,3.59,0,0,0,1.06,2.68,4.36,4.36,0,0,0,3.14,1,4.51,4.51,0,0,0,3.09-1,3.54,3.54,0,0,0,1.15-2.82V343.59h6.55v23.46h-5l-.77-4.65a5.88,5.88,0,0,1-1.53,3.16,6.07,6.07,0,0,1-2.56,1.52A10.11,10.11,0,0,1,1491.17,367.5Z"/><path class="cls-2" d="M1518.51,367.5a14.18,14.18,0,0,1-4.72-.8,9.23,9.23,0,0,1-3.83-2.55,8.42,8.42,0,0,1-2-4.5h5.74a3.9,3.9,0,0,0,1.08,2,4.62,4.62,0,0,0,1.78,1,6.58,6.58,0,0,0,1.9.3,6.78,6.78,0,0,0,3.08-.6,2,2,0,0,0,1.17-1.85,1.86,1.86,0,0,0-.7-1.52,5.28,5.28,0,0,0-2.28-.86l-4.12-.86a11.22,11.22,0,0,1-5-2.24,5.64,5.64,0,0,1-1.92-4.48,6.61,6.61,0,0,1,1.12-3.78,7.58,7.58,0,0,1,3.32-2.66,13.34,13.34,0,0,1,5.4-1,11.45,11.45,0,0,1,6.93,1.9,6.4,6.4,0,0,1,2.65,5.38h-5.54a3.11,3.11,0,0,0-1.35-2.1,4.85,4.85,0,0,0-2.76-.74,5.9,5.9,0,0,0-2.83.61,2,2,0,0,0-1.11,1.86,1.65,1.65,0,0,0,.9,1.47,9.93,9.93,0,0,0,2.82.92l3.81.86a10.18,10.18,0,0,1,3.21,1.3,7.46,7.46,0,0,1,1.92,1.81,6.39,6.39,0,0,1,.94,2,7.22,7.22,0,0,1,.26,1.78,6.39,6.39,0,0,1-1.25,4,7.76,7.76,0,0,1-3.47,2.51A14.29,14.29,0,0,1,1518.51,367.5Z"/><path class="cls-2" d="M1539.74,334.27v6h-6.46v-6Zm-.06,9.32v23.46h-6.33V343.59Z"/><path class="cls-2" d="M1565.86,343.59l-8.81,23.46h-4.78l-8.83-23.46h6l5.13,15h.18l5.06-15Z"/><path class="cls-2" d="M1573.73,356.84a7.4,7.4,0,0,0,.56,3.12,4.61,4.61,0,0,0,1.72,2,4.91,4.91,0,0,0,2.71.71,6,6,0,0,0,3-.72,3.87,3.87,0,0,0,1.78-2.38h6a8,8,0,0,1-2,4.26,10.45,10.45,0,0,1-3.86,2.7,12.37,12.37,0,0,1-4.72.93,12.5,12.5,0,0,1-6.12-1.46,10.36,10.36,0,0,1-4.11-4.14,12.82,12.82,0,0,1-1.48-6.31,14.66,14.66,0,0,1,1.34-6.34,10.63,10.63,0,0,1,3.89-4.47,11.06,11.06,0,0,1,6.14-1.64,11.3,11.3,0,0,1,6,1.5,9.52,9.52,0,0,1,3.68,4.2,14.77,14.77,0,0,1,1.23,6.21v1.79Zm0-3.95h9.57a6.31,6.31,0,0,0-.52-2.57,4.28,4.28,0,0,0-1.58-1.86,4.63,4.63,0,0,0-2.64-.7,4.52,4.52,0,0,0-2.62.74,4.8,4.8,0,0,0-1.65,1.92A5.58,5.58,0,0,0,1573.71,352.89Z"/><path class="cls-2" d="M1603.24,367.05V343.59h6.51v3.31a9,9,0,0,1,1.42-1.67,6.9,6.9,0,0,1,2.21-1.32,8.71,8.71,0,0,1,3.18-.53,9.89,9.89,0,0,1,4,.84,7,7,0,0,1,3,2.65,8.5,8.5,0,0,1,1.16,4.7v15.48h-6.62V352.39a3.53,3.53,0,0,0-1.15-2.86,4.18,4.18,0,0,0-2.75-.95,5.75,5.75,0,0,0-2.1.39,3.79,3.79,0,0,0-1.65,1.15,2.93,2.93,0,0,0-.63,1.91v15Z"/><path class="cls-2" d="M1636.79,367.5a9.37,9.37,0,0,1-4-.84,6.69,6.69,0,0,1-2.84-2.44,7,7,0,0,1-1-3.89,6.68,6.68,0,0,1,2.87-5.86q2.87-2,9.11-2.08l2.92,0v-1.41a3.2,3.2,0,0,0-.94-2.48,4.09,4.09,0,0,0-2.91-.86,6.33,6.33,0,0,0-2.76.69,3.49,3.49,0,0,0-1.78,2.29h-5.51a7.05,7.05,0,0,1,1.47-4.19,8,8,0,0,1,3.64-2.45,15.74,15.74,0,0,1,5.23-.8,15.47,15.47,0,0,1,5.79.89,6.22,6.22,0,0,1,3.15,2.57,7.69,7.69,0,0,1,1,3.95v16.5h-5.53l-.55-4a7.34,7.34,0,0,1-3,3.51A8.71,8.71,0,0,1,1636.79,367.5Zm2.23-4.35a4.86,4.86,0,0,0,1.76-.33,5.62,5.62,0,0,0,1.52-.89,4.72,4.72,0,0,0,1.07-1.26,2.78,2.78,0,0,0,.41-1.45v-3.45l-2.38,0a13,13,0,0,0-3.08.4,5.11,5.11,0,0,0-2.31,1.22,3,3,0,0,0-.87,2.26,3.14,3.14,0,0,0,1.13,2.56A4.25,4.25,0,0,0,1639,363.15Z"/><path class="cls-2" d="M1665.63,374.35V343.59h6.65l0,3.38a7.13,7.13,0,0,1,1.28-1.53,9.46,9.46,0,0,1,1.69-1.22,8.77,8.77,0,0,1,2-.8,9,9,0,0,1,2.29-.28,8.14,8.14,0,0,1,7.86,5.22,20.15,20.15,0,0,1-.09,13.78,8.79,8.79,0,0,1-3.46,4,9.47,9.47,0,0,1-5,1.32,7.08,7.08,0,0,1-2.13-.31,7.23,7.23,0,0,1-1.85-.85,7.72,7.72,0,0,1-1.52-1.26,9.4,9.4,0,0,1-1.17-1.55v10.82Zm11.7-11.7a4.48,4.48,0,0,0,3.62-1.8q1.47-1.78,1.47-5.65a8.94,8.94,0,0,0-1.4-5.34,4.35,4.35,0,0,0-3.69-1.92,4.19,4.19,0,0,0-3.82,2.08,9.82,9.82,0,0,0-1.26,5.18,11.74,11.74,0,0,0,.56,3.66,6.31,6.31,0,0,0,1.68,2.74A4,4,0,0,0,1677.33,362.65Z"/><path class="cls-2" d="M1703.08,367.5a11.81,11.81,0,0,1-6-1.47,10.06,10.06,0,0,1-3.94-4.18,13.76,13.76,0,0,1-1.4-6.4,14.17,14.17,0,0,1,1.4-6.46,10.34,10.34,0,0,1,3.94-4.31,12.61,12.61,0,0,1,12,0,10.13,10.13,0,0,1,3.92,4.27,14.41,14.41,0,0,1,1.39,6.52,13.82,13.82,0,0,1-1.35,6.25,10.25,10.25,0,0,1-3.88,4.26A11.54,11.54,0,0,1,1703.08,367.5Zm0-4.92a3.9,3.9,0,0,0,2.81-1,5.91,5.91,0,0,0,1.55-2.69,12.77,12.77,0,0,0,.49-3.64,13.8,13.8,0,0,0-.44-3.52A5.7,5.7,0,0,0,1706,349a4.62,4.62,0,0,0-5.73,0,5.51,5.51,0,0,0-1.57,2.61,12.23,12.23,0,0,0-.5,3.64,13.59,13.59,0,0,0,.45,3.52,6,6,0,0,0,1.52,2.76A4,4,0,0,0,1703.11,362.58Z"/><path class="cls-2" d="M1726.31,367.46a11.15,11.15,0,0,1-4.1-.62,5,5,0,0,1-2.25-1.62A5.33,5.33,0,0,1,1719,363a16,16,0,0,1-.2-2.5V333.33h6.49v26.32a3.64,3.64,0,0,0,.55,2.1,2.8,2.8,0,0,0,2.1,1l1.11.06v4.09c-.45.15-.91.28-1.38.4A6.07,6.07,0,0,1,1726.31,367.46Z"/><path class="cls-2" d="M1740,343.59v23.46h-6.35V343.59Zm-2.45-9.35h6.51l-5,6.6-4.81,0Z"/><path class="cls-2" d="M1760.27,348.19h-5.21l0,12.5a2.85,2.85,0,0,0,.22,1.29,1,1,0,0,0,.68.54,4.84,4.84,0,0,0,1.19.13h3.15v4.08a6.39,6.39,0,0,1-1.42.38,14.27,14.27,0,0,1-2.68.19,11.52,11.52,0,0,1-4.78-.8,4.61,4.61,0,0,1-2.35-2.22,7.82,7.82,0,0,1-.65-3.31V348.19h-3.82v-4.6h4l1.66-7.08h4.72v7.06h5.21Z"/><path class="cls-2" d="M1771.89,334.27v6h-6.47v-6Zm-.07,9.32v23.46h-6.33V343.59Z"/><path class="cls-2" d="M1787.88,343.14a10.29,10.29,0,0,1,5.1,1.2,9.07,9.07,0,0,1,3.38,3.24,10.22,10.22,0,0,1,1.42,4.56h-5.52a5.73,5.73,0,0,0-.66-1.85,4.24,4.24,0,0,0-1.4-1.52,4,4,0,0,0-2.27-.6,4.63,4.63,0,0,0-3.76,1.78,8.5,8.5,0,0,0-1.44,5.41,9.31,9.31,0,0,0,1.41,5.44,4.52,4.52,0,0,0,3.93,2,3.66,3.66,0,0,0,2.23-.65,4.89,4.89,0,0,0,1.4-1.58,5.62,5.62,0,0,0,.63-1.71h5.38a9.23,9.23,0,0,1-1.41,4.39,8.93,8.93,0,0,1-3.39,3.11,10.58,10.58,0,0,1-5,1.14,11.62,11.62,0,0,1-5.83-1.45,10.27,10.27,0,0,1-4-4.16,13.42,13.42,0,0,1-1.47-6.48A13.93,13.93,0,0,1,1778,349a10.61,10.61,0,0,1,4-4.32A11.18,11.18,0,0,1,1787.88,343.14Z"/><path class="cls-2" d="M1809,367.5a9.37,9.37,0,0,1-4-.84,6.69,6.69,0,0,1-2.84-2.44,7,7,0,0,1-1-3.89,6.68,6.68,0,0,1,2.87-5.86q2.86-2,9.11-2.08l2.92,0v-1.41a3.2,3.2,0,0,0-.94-2.48,4.09,4.09,0,0,0-2.91-.86,6.33,6.33,0,0,0-2.76.69,3.49,3.49,0,0,0-1.78,2.29h-5.51a7.05,7.05,0,0,1,1.47-4.19,8,8,0,0,1,3.64-2.45,15.74,15.74,0,0,1,5.23-.8,15.51,15.51,0,0,1,5.79.89,6.22,6.22,0,0,1,3.15,2.57,7.69,7.69,0,0,1,1,3.95v16.5h-5.53l-.55-4a7.34,7.34,0,0,1-3,3.51A8.71,8.71,0,0,1,1809,367.5Zm2.23-4.35a4.86,4.86,0,0,0,1.76-.33,5.62,5.62,0,0,0,1.52-.89,4.72,4.72,0,0,0,1.07-1.26,2.78,2.78,0,0,0,.41-1.45v-3.45l-2.38,0a13,13,0,0,0-3.08.4,5.11,5.11,0,0,0-2.31,1.22,3,3,0,0,0-.87,2.26,3.14,3.14,0,0,0,1.13,2.56A4.25,4.25,0,0,0,1811.23,363.15Z"/></svg>