<svg id="Camada_1" data-name="Camada 1" xmlns="http://www.w3.org/2000/svg" viewBox="0 0 1080 1080"><defs><style>.cls-1{fill:#912b78;}.cls-2{fill:#340b77;}</style></defs><title>Conecta_logo</title><path class="cls-1" d="M682.29,334a54,54,0,0,1-1.14,11,53.32,53.32,0,1,1,1.14-11Z"/><path class="cls-1" d="M228.52,746a53.29,53.29,0,1,1-53.28-53.31c1.06,0,2.11,0,3.14.11.5,0,1,.05,1.52.1a15.53,15.53,0,0,1,1.56.16c.76.08,1.5.18,2.24.29s1.47.26,2.21.42c.9.18,1.76.37,2.63.61s1.72.44,2.53.71,1.66.55,2.48.84,1.47.55,2.21.87a50.33,50.33,0,0,1,6.4,3.21c.58.32,1.13.66,1.69,1s1.1.71,1.63,1.08c0,0,.05,0,.08,0l1.95,1.42a55,55,0,0,1,5.4,4.72c.5.5,1,1,1.44,1.53a51.16,51.16,0,0,1,6.51,8.58,55.32,55.32,0,0,1,4.4,9.14,51.11,51.11,0,0,1,2.13,7.43,50.17,50.17,0,0,1,.84,5.42c.08.71.14,1.4.16,2.11C228.5,743.68,228.52,744.84,228.52,746Z"/><path class="cls-2" d="M958.06,540a19.82,19.82,0,0,1-8.79,16.46l-309.33,206a19.78,19.78,0,0,1-11,3.32H401.66a19.74,19.74,0,0,1-10.93-36.19L675.36,540,395.69,353.76H240.53l255,169.79a19.78,19.78,0,0,1,0,32.9L261.66,712.18a93.43,93.43,0,0,0-21.94-32.87L448.91,540,164.29,350.44a19.75,19.75,0,0,1,11-36.19H401.66a19.78,19.78,0,0,1,11,3.32L722,523.55a19.78,19.78,0,0,1,0,32.9L467,726.24H623L902.68,540,693.45,400.66a92.85,92.85,0,0,0,22-32.84L949.27,523.55A19.81,19.81,0,0,1,958.06,540Z"/></svg>